<svg width="14" height="14" viewBox="0 0 14 14" fill="none" xmlns="http://www.w3.org/2000/svg">
<path fill-rule="evenodd" clip-rule="evenodd" d="M11.001 12.25C12.2245 12.25 12.8333 11.6145 12.8333 10.3556V3.64435C12.8333 2.38552 12.2245 1.75 11.001 1.75H3.00473C1.78128 1.75 1.16663 2.37941 1.16663 3.64435V10.3556C1.16663 11.6206 1.78128 12.25 3.00473 12.25H11.001ZM11.0771 11.2662H2.91688C2.39589 11.2662 2.10905 10.9789 2.10905 10.4106V4.64815C2.10905 4.08596 2.39589 3.79264 2.91688 3.79264H11.0771C11.5981 3.79264 11.8908 4.08596 11.8908 4.64815V10.4106C11.8908 10.9789 11.5981 11.2662 11.0771 11.2662ZM6.20079 5.98642C6.40567 5.98642 6.47592 5.92531 6.47592 5.71144V5.3509C6.47592 5.13702 6.40567 5.0698 6.20079 5.0698H5.85541C5.65053 5.0698 5.58028 5.13702 5.58028 5.3509V5.71144C5.58028 5.92531 5.65053 5.98642 5.85541 5.98642H6.20079ZM8.14431 5.98642C8.3492 5.98642 8.41944 5.92531 8.41944 5.71144V5.3509C8.41944 5.13702 8.3492 5.0698 8.14431 5.0698H7.80479C7.59406 5.0698 7.52966 5.13702 7.52966 5.3509V5.71144C7.52966 5.92531 7.59406 5.98642 7.80479 5.98642H8.14431ZM10.0936 5.98642C10.2985 5.98642 10.3628 5.92531 10.3628 5.71144V5.3509C10.3628 5.13702 10.2985 5.0698 10.0936 5.0698H9.74819C9.54331 5.0698 9.47306 5.13702 9.47306 5.3509V5.71144C9.47306 5.92531 9.54331 5.98642 9.74819 5.98642H10.0936ZM4.25739 7.98466C4.46227 7.98466 4.52666 7.92355 4.52666 7.70967V7.34913C4.52666 7.13525 4.46227 7.07415 4.25739 7.07415H3.91201C3.70713 7.07415 3.63688 7.13525 3.63688 7.34913V7.70967C3.63688 7.92355 3.70713 7.98466 3.91201 7.98466H4.25739ZM6.20079 7.98466C6.40567 7.98466 6.47592 7.92355 6.47592 7.70967V7.34913C6.47592 7.13525 6.40567 7.07415 6.20079 7.07415H5.85541C5.65053 7.07415 5.58028 7.13525 5.58028 7.34913V7.70967C5.58028 7.92355 5.65053 7.98466 5.85541 7.98466H6.20079ZM8.14431 7.98466C8.3492 7.98466 8.41944 7.92355 8.41944 7.70967V7.34913C8.41944 7.13525 8.3492 7.07415 8.14431 7.07415H7.80479C7.59406 7.07415 7.52966 7.13525 7.52966 7.34913V7.70967C7.52966 7.92355 7.59406 7.98466 7.80479 7.98466H8.14431ZM10.0936 7.98466C10.2985 7.98466 10.3628 7.92355 10.3628 7.70967V7.34913C10.3628 7.13525 10.2985 7.07415 10.0936 7.07415H9.74819C9.54331 7.07415 9.47306 7.13525 9.47306 7.34913V7.70967C9.47306 7.92355 9.54331 7.98466 9.74819 7.98466H10.0936ZM4.25739 9.989C4.46227 9.989 4.52666 9.92178 4.52666 9.7079V9.34736C4.52666 9.13348 4.46227 9.07238 4.25739 9.07238H3.91201C3.70713 9.07238 3.63688 9.13348 3.63688 9.34736V9.7079C3.63688 9.92178 3.70713 9.989 3.91201 9.989H4.25739ZM6.20079 9.989C6.40567 9.989 6.47592 9.92178 6.47592 9.7079V9.34736C6.47592 9.13348 6.40567 9.07238 6.20079 9.07238H5.85541C5.65053 9.07238 5.58028 9.13348 5.58028 9.34736V9.7079C5.58028 9.92178 5.65053 9.989 5.85541 9.989H6.20079ZM8.14431 9.989C8.3492 9.989 8.41944 9.92178 8.41944 9.7079V9.34736C8.41944 9.13348 8.3492 9.07238 8.14431 9.07238H7.80479C7.59406 9.07238 7.52966 9.13348 7.52966 9.34736V9.7079C7.52966 9.92178 7.59406 9.989 7.80479 9.989H8.14431Z" fill="#CFD8DC"/>
</svg>
